<svg width="290" height="99" viewBox="0 0 290 99" fill="none" xmlns="http://www.w3.org/2000/svg">
<path d="M86.7296 48.0666C78.9468 48.0608 71.2689 49.8614 64.3 53.3266C57.3312 56.7918 51.2617 61.8271 46.5692 68.0362C41.5325 65.8687 36.0363 64.9859 30.5742 65.467C25.112 65.9481 19.8548 67.7781 15.2745 70.7927C10.6943 73.8073 6.93428 77.9121 4.33209 82.7386C1.7299 87.5651 0.366959 92.9622 0.365662 98.4455H137.109C137.109 91.8296 135.806 85.2786 133.274 79.1663C130.742 73.054 127.031 67.5003 122.353 62.8222C117.675 58.1441 112.121 54.4332 106.009 51.9014C99.8966 49.3696 93.3455 48.0666 86.7296 48.0666Z" fill="#C3E5ED"/>
<path d="M239.364 1.38348e-05C231.581 -0.00575841 223.903 1.7948 216.934 5.26002C209.966 8.72525 203.896 13.7605 199.204 19.9696C194.167 17.8021 188.671 16.9193 183.208 17.4005C177.746 17.8816 172.489 19.7116 167.909 22.7261C163.329 25.7407 159.569 29.8455 156.966 34.672C154.364 39.4985 153.001 44.8956 153 50.3789H289.743C289.743 43.7631 288.44 37.212 285.908 31.0997C283.376 24.9875 279.665 19.4338 274.987 14.7556C270.309 10.0775 264.755 6.36663 258.643 3.83485C252.531 1.30308 245.98 -1.9239e-06 239.364 1.38348e-05Z" fill="#C3E5ED"/>
</svg>
