<svg width="463" height="203" viewBox="0 0 463 203" fill="none" xmlns="http://www.w3.org/2000/svg">
<path d="M462.36 201.477C459.948 202.045 457.478 202.331 455 202.327H16C10.5934 202.336 5.27325 200.97 0.540009 198.357L1.70993 196.677L50.6899 126.147L123.27 21.657L124.33 20.127L135.75 3.68701C136.517 2.58071 137.541 1.67672 138.734 1.0524C139.927 0.428073 141.254 0.10199 142.6 0.10199C143.946 0.10199 145.273 0.428073 146.466 1.0524C147.659 1.67672 148.683 2.58071 149.45 3.68701L187.39 58.297V58.307L209.71 90.447L262.99 167.147L343.8 51.797C344.569 50.6969 345.593 49.7987 346.784 49.1785C347.974 48.5583 349.297 48.2345 350.64 48.2345C351.982 48.2345 353.305 48.5583 354.496 49.1785C355.687 49.7987 356.71 50.6969 357.48 51.797L409.32 125.787L412.3 130.037L462.36 201.477Z" fill="#3F3D56"/>
</svg>
<svg width="290" height="99" viewBox="0 0 290 99" fill="none" xmlns="http://www.w3.org/2000/svg">
<path d="M86.7296 48.0666C78.9468 48.0608 71.2689 49.8614 64.3 53.3266C57.3312 56.7918 51.2617 61.8271 46.5692 68.0362C41.5325 65.8687 36.0363 64.9859 30.5742 65.467C25.112 65.9481 19.8548 67.7781 15.2745 70.7927C10.6943 73.8073 6.93428 77.9121 4.33209 82.7386C1.7299 87.5651 0.366959 92.9622 0.365662 98.4455H137.109C137.109 91.8296 135.806 85.2786 133.274 79.1663C130.742 73.054 127.031 67.5003 122.353 62.8222C117.675 58.1441 112.121 54.4332 106.009 51.9014C99.8966 49.3696 93.3455 48.0666 86.7296 48.0666Z" fill="#C3E5ED"/>
<path d="M239.364 1.38348e-05C231.581 -0.00575841 223.903 1.7948 216.934 5.26002C209.966 8.72525 203.896 13.7605 199.204 19.9696C194.167 17.8021 188.671 16.9193 183.208 17.4005C177.746 17.8816 172.489 19.7116 167.909 22.7261C163.329 25.7407 159.569 29.8455 156.966 34.672C154.364 39.4985 153.001 44.8956 153 50.3789H289.743C289.743 43.7631 288.44 37.212 285.908 31.0997C283.376 24.9875 279.665 19.4338 274.987 14.7556C270.309 10.0775 264.755 6.36663 258.643 3.83485C252.531 1.30308 245.98 -1.9239e-06 239.364 1.38348e-05Z" fill="#C3E5ED"/>
</svg>
<svg width="132" height="132" viewBox="0 0 132 132" fill="none" xmlns="http://www.w3.org/2000/svg">
<path d="M66.1967 131.718C102.513 131.718 131.954 102.277 131.954 65.9604C131.954 29.6436 102.513 0.203094 66.1967 0.203094C29.8799 0.203094 0.439423 29.6436 0.439423 65.9604C0.439423 102.277 29.8799 131.718 66.1967 131.718Z" fill="#FF6C63"/>
</svg>
