<svg width="463" height="203" viewBox="0 0 463 203" fill="none" xmlns="http://www.w3.org/2000/svg">
<path d="M462.36 201.477C459.948 202.045 457.478 202.331 455 202.327H16C10.5934 202.336 5.27325 200.97 0.540009 198.357L1.70993 196.677L50.6899 126.147L123.27 21.657L124.33 20.127L135.75 3.68701C136.517 2.58071 137.541 1.67672 138.734 1.0524C139.927 0.428073 141.254 0.10199 142.6 0.10199C143.946 0.10199 145.273 0.428073 146.466 1.0524C147.659 1.67672 148.683 2.58071 149.45 3.68701L187.39 58.297V58.307L209.71 90.447L262.99 167.147L343.8 51.797C344.569 50.6969 345.593 49.7987 346.784 49.1785C347.974 48.5583 349.297 48.2345 350.64 48.2345C351.982 48.2345 353.305 48.5583 354.496 49.1785C355.687 49.7987 356.71 50.6969 357.48 51.797L409.32 125.787L412.3 130.037L462.36 201.477Z" fill="#3F3D56"/>
</svg>
