<svg width="817" height="701" viewBox="0 0 817 701" fill="none" xmlns="http://www.w3.org/2000/svg">
<path d="M148.197 511.718C184.513 511.718 213.954 482.277 213.954 445.96C213.954 409.644 184.513 380.203 148.197 380.203C111.88 380.203 82.4394 409.644 82.4394 445.96C82.4394 482.277 111.88 511.718 148.197 511.718Z" fill="#FF6C63"/>
<path d="M533.36 581.477C530.948 582.045 528.478 582.331 526 582.327H87C81.5934 582.336 76.2732 580.97 71.54 578.357L72.7099 576.677L121.69 506.147L194.27 401.657L195.33 400.127L206.75 383.687C207.517 382.581 208.541 381.677 209.734 381.052C210.927 380.428 212.254 380.102 213.6 380.102C214.946 380.102 216.273 380.428 217.466 381.052C218.659 381.677 219.683 382.581 220.45 383.687L258.39 438.297V438.307L280.71 470.447L333.99 547.147L414.8 431.797C415.569 430.697 416.593 429.799 417.784 429.178C418.974 428.558 420.297 428.235 421.64 428.235C422.982 428.235 424.305 428.558 425.496 429.178C426.687 429.799 427.71 430.697 428.48 431.797L480.32 505.787L483.3 510.037L533.36 581.477Z" fill="#3F3D56"/>
<path d="M303.73 420.067C295.947 420.061 288.269 421.861 281.3 425.327C274.331 428.792 268.262 433.827 263.569 440.036C258.532 437.869 253.036 436.986 247.574 437.467C242.112 437.948 236.855 439.778 232.275 442.793C227.694 445.807 223.934 449.912 221.332 454.739C218.73 459.565 217.367 464.962 217.366 470.445H354.109C354.109 463.83 352.806 457.279 350.274 451.166C347.742 445.054 344.031 439.5 339.353 434.822C334.675 430.144 329.121 426.433 323.009 423.901C316.897 421.37 310.346 420.067 303.73 420.067V420.067Z" fill="#C3E5ED"/>
<path d="M456.364 372C448.581 371.994 440.903 373.795 433.934 377.26C426.966 380.725 420.896 385.761 416.204 391.97C411.167 389.802 405.671 388.919 400.208 389.4C394.746 389.882 389.489 391.712 384.909 394.726C380.329 397.741 376.569 401.846 373.966 406.672C371.364 411.499 370.001 416.896 370 422.379H506.743C506.743 415.763 505.44 409.212 502.908 403.1C500.376 396.987 496.665 391.434 491.987 386.756C487.309 382.078 481.755 378.367 475.643 375.835C469.531 373.303 462.98 372 456.364 372V372Z" fill="#C3E5ED"/>
</svg>
